<svg width="100" height="63" viewBox="0 0 100 63" fill="none" xmlns="http://www.w3.org/2000/svg">
  <circle cx="15" cy="33" r="14" stroke="white" stroke-width="2"/>
  <circle cx="15" cy="33" r="9" stroke="white" stroke-width="1"/>

  <path d="M 15 19 l 0 5" stroke="white" stroke-width="2"/>
  <path d="M 15 42 l 0 5" stroke="white" stroke-width="2"/>
  <path d="M 1 33 l 5 0" stroke="white" stroke-width="2"/>
  <path d="M 24 33 l 5 0" stroke="white" stroke-width="2"/>
  <path d="M 5 23 l 3.5 3.5" stroke="white" stroke-width="2"/>
  <path d="M 24 23 l -3.5 3.5" stroke="white" stroke-width="2"/>
  <path d="M 24 43 l -3.5 -3.5" stroke="white" stroke-width="2"/>
  <path d="M 5 43 l 3.5 -3.5" stroke="white" stroke-width="2"/>

  <circle cx="85" cy="33" r="14" stroke="white" stroke-width="2"/>
  <circle cx="85" cy="33" r="9" stroke="white" stroke-width="1"/>

  <path d="M 85 19 l 0 5" stroke="white" stroke-width="2"/>
  <path d="M 85 42 l 0 5" stroke="white" stroke-width="2"/>
  <path d="M 95 33 l 5 0" stroke="white" stroke-width="2"/>
  <path d="M 71 33 l 5 0" stroke="white" stroke-width="2"/>
  <path d="M 95 23 l -3.5 3.5" stroke="white" stroke-width="2"/>
  <path d="M 75 23 l 3.5 3.5" stroke="white" stroke-width="2"/>
  <path d="M 75 43 l 3.5 -3.5" stroke="white" stroke-width="2"/>
  <path d="M 95 43 l -3.5 -3.5" stroke="white" stroke-width="2"/>

  <path d="M 1 19 L 1 63" stroke="white" stroke-width="2"/>
  <path d="M 99 19 L 99 47" stroke="white" stroke-width="2"/>
  <path d="M 75 11 L 95 11" stroke="white" stroke-width="2"/>
  <path d="M 48 15 l 0 26 a 5 5 0 0 0 5 5" stroke="white" stroke-width="2"/>
  <path d="M 1 14 L 1 3 a 2 2 0 0 1 2 -2 L 97 1 a 2 2 0 0 1 2 2 L 99 14" stroke="white" stroke-width="1" fill="none"/>
  <path d="M 7 62 L 97 62 a 2 2 0 0 0 2 -2 L 99 52" stroke="white" stroke-width="1" fill="none"/>
</svg>
